<svg width="451" height="348" viewBox="0 0 451 348" fill="none" xmlns="http://www.w3.org/2000/svg">
<path d="M382 16C361.461 23.8532 349.03 43.5555 335.889 60.3333C311.082 92.0056 285.984 124.421 254.889 150.333C242.371 160.765 226.749 165.075 214.111 175.556C204.836 183.247 195.585 191.076 186.556 199.056C172.594 211.393 163.522 226.801 154 242.556C147.71 252.962 139.562 262.67 132 272.222C127.463 277.953 123.742 284.258 118.556 289.444C114.322 293.678 109.225 299.072 106.611 304.5C103.574 310.807 100.511 317.032 97.5 323.389C96.0966 326.352 93 329.616 93 333" stroke="white" stroke-width="30" stroke-linecap="round"/>
<path d="M16 65C32.8274 72.8986 48.7632 82.4284 65.6667 90.2222C92.8544 102.758 120.227 115.058 147.778 126.778C190.556 144.975 233.655 161.798 273.556 186C292.099 197.248 308.264 211.816 326 224.222C334.984 230.506 344.955 236.5 353 244C361.213 251.656 370.852 257.378 379 264.944C386.701 272.096 397.141 276.302 405.444 282.944C412.896 288.906 418.776 296.616 425.944 302.889C429.536 306.032 433.407 309.221 435 314" stroke="white" stroke-width="30" stroke-linecap="round"/>
</svg>
